<svg xmlns="http://www.w3.org/2000/svg"
     width="420"
     height="120"
     viewBox="0 0 420 120"
     fill="none">
  <path fill="#0B5CAD"
        d="M20,0h80a20,20 0 0 1 20,20v80a20,20 0 0 1 -20,20H20A20,20 0 0 1 0,100V20A20,20 0 0 1 20,0z"/>
  <path fill="#FFFFFF"
        d="M38,20h42a8,8 0 0 1 8,8v64a13,13 0 0 1 -13,13H38a8,8 0 0 1 -8,-8V28a8,8 0 0 1 8,-8z"/>
  <path fill="#DCEBFA"
        d="M80,20 L98,38 L80,38 Z"/>
  <path fill="#0B5CAD"
        d="M45,47h25a4,4 0 0 1 4,4a4,4 0 0 1 -4,4H45a4,4 0 0 1 -4,-4a4,4 0 0 1 4,-4z"/>
  <path fill="#A8C9EE"
        d="M45,62h31a3,3 0 0 1 3,3a3,3 0 0 1 -3,3H45a3,3 0 0 1 -3,-3a3,3 0 0 1 3,-3z"/>
  <path fill="#A8C9EE"
        d="M45,75h18a3,3 0 0 1 3,3a3,3 0 0 1 -3,3H45a3,3 0 0 1 -3,-3a3,3 0 0 1 3,-3z"/>
  <path fill="none"
        d="M68,90 L83,75 L98,90"
        stroke="#6CCB00"
        stroke-width="6"
        stroke-linecap="round"
        stroke-linejoin="round"/>
  <text x="130"
        y="68"
        font-family="Arial, Helvetica, sans-serif"
        font-size="44"
        font-weight="700"
        letter-spacing="-1"
        fill="#061A49">Payflow</text>
  <text x="292"
        y="68"
        font-family="Arial, Helvetica, sans-serif"
        font-size="44"
        font-weight="700"
        letter-spacing="-1"
        fill="#6CCB00">SA</text>
  <text x="132"
        y="92"
        font-family="Arial, Helvetica, sans-serif"
        font-size="14"
        font-weight="400"
        letter-spacing="0.2"
        fill="#6B7280">Secure. Accurate. Reliable.</text>
</svg>
